<?xml version="1.0" standalone="no"?>
<!DOCTYPE svg PUBLIC "-//W3C//DTD SVG 20010904//EN"
 "http://www.w3.org/TR/2001/REC-SVG-20010904/DTD/svg10.dtd">
<svg version="1.0" xmlns="http://www.w3.org/2000/svg"
 width="1024.000000pt" height="1024.000000pt" viewBox="0 0 1024.000000 1024.000000"
 preserveAspectRatio="xMidYMid meet">

<g transform="translate(0.000000,1024.000000) scale(0.100000,-0.100000)"
fill="#000000" stroke="none">
<path d="M4014 9216 c-29 -28 -37 -46 -48 -105 -8 -39 -10 -71 -6 -71 4 0 10
18 13 41 20 153 174 72 361 -191 94 -131 155 -233 162 -269 5 -23 0 -33 -28
-54 -37 -30 -36 -32 13 -16 79 27 98 81 63 186 -27 84 -87 211 -114 241 -8 9
-21 29 -29 44 -31 60 -210 226 -231 213 -5 -3 -10 -1 -10 4 0 7 -23 11 -55 11
-50 0 -60 -4 -91 -34z"/>
<path d="M3857 9153 c-32 -70 -32 -273 1 -387 31 -107 82 -229 134 -317 24
-41 49 -87 56 -104 8 -16 39 -72 69 -123 35 -59 52 -97 46 -103 -5 -5 -54 -22
-109 -38 -116 -34 -320 -104 -454 -156 -158 -62 -505 -236 -632 -317 -29 -19
-73 -47 -98 -63 -44 -28 -274 -199 -296 -220 -6 -5 -44 -39 -84 -75 -149 -132
-303 -295 -433 -460 -38 -47 -189 -267 -196 -285 -2 -5 -21 -38 -42 -71 -37
-61 -134 -264 -163 -340 -100 -268 -141 -432 -170 -684 -24 -203 -25 -210 -15
-210 5 0 9 -55 9 -122 0 -134 21 -343 44 -453 16 -76 52 -215 58 -220 2 -2 4
135 4 303 1 228 6 333 17 410 57 362 174 697 355 1017 98 173 227 355 252 355
9 0 17 -112 25 -350 13 -388 35 -677 70 -927 70 -486 178 -860 346 -1195 108
-216 197 -333 315 -414 30 -21 54 -41 54 -45 0 -5 -7 -27 -16 -48 -15 -38 -15
-44 6 -106 12 -37 20 -68 19 -70 -5 -4 -182 -55 -369 -107 -156 -43 -188 -56
-220 -90 -24 -26 -26 -70 -5 -88 20 -16 66 -9 219 36 147 42 212 52 291 42
239 -31 335 -271 175 -439 -49 -52 -158 -100 -332 -149 -79 -23 -172 -49 -208
-60 -130 -39 -223 -60 -245 -54 -13 3 -26 0 -30 -6 -5 -9 -1 -10 16 -6 17 5
19 4 9 -2 -8 -5 -35 -9 -59 -8 -41 1 -45 3 -57 36 -7 19 -13 29 -13 23 -2 -23
21 -106 70 -258 27 -82 55 -182 64 -220 19 -84 46 -132 78 -141 41 -10 386 75
589 145 75 26 277 121 373 176 92 52 230 109 248 102 7 -3 28 -66 47 -143 18
-77 39 -145 46 -153 32 -35 502 -126 824 -158 229 -23 668 -23 897 1 408 41
807 133 1221 282 531 192 1063 549 1483 995 152 162 274 299 306 345 25 35 43
151 43 272 0 86 -4 85 110 35 58 -25 76 -28 170 -28 85 1 123 6 200 29 52 15
98 33 102 39 11 16 9 151 -3 212 -5 28 -11 73 -14 100 -22 191 -50 324 -85
403 -17 36 -31 79 -33 96 -2 31 -1 31 50 34 52 3 53 3 64 45 15 55 17 66 29
172 15 132 13 185 -5 185 -8 0 -54 15 -103 34 -48 18 -121 46 -162 62 -41 15
-80 32 -87 37 -8 6 -13 -5 -18 -40 -10 -78 -14 -92 -35 -113 -20 -20 -20 -20
11 -78 17 -31 57 -100 89 -152 85 -142 211 -368 217 -390 6 -22 -10 -30 -119
-61 -74 -21 -114 -24 -123 -10 -3 5 -17 8 -31 5 -14 -3 -23 -1 -20 5 3 5 -6
12 -19 15 -16 4 -23 11 -19 18 5 7 0 9 -14 6 -12 -4 -20 -1 -19 4 1 6 -4 13
-12 16 -8 3 -11 0 -7 -7 5 -7 1 -9 -8 -5 -9 3 -13 10 -10 16 3 5 0 8 -7 7 -18
-3 -69 21 -69 33 0 4 5 8 10 8 6 0 10 -3 10 -8 0 -4 10 -13 23 -21 21 -13 21
-12 -3 13 -18 20 -31 25 -47 21 -17 -4 -21 -2 -17 10 4 9 3 15 -2 14 -20 -5
-65 15 -74 32 -7 12 -16 16 -28 12 -9 -3 -14 -2 -9 2 8 9 -75 55 -99 55 -8 0
-13 4 -10 9 7 10 -19 23 -51 25 -12 1 -33 12 -47 26 -14 13 -28 21 -31 19 -2
-3 45 -98 105 -212 61 -113 111 -216 113 -229 2 -20 -9 -25 -112 -55 -75 -21
-119 -29 -130 -24 -16 9 -143 247 -147 277 -1 9 -9 23 -16 32 -8 10 -20 36
-28 59 -7 23 -16 40 -21 38 -10 -7 -32 62 -24 75 3 5 0 7 -9 4 -11 -4 -18 6
-26 35 -6 23 -15 39 -19 37 -5 -3 -7 6 -5 19 1 14 -2 25 -7 25 -5 0 -9 5 -9
10 0 6 -9 20 -20 32 -12 13 -20 36 -20 54 0 18 -4 36 -10 39 -21 13 -8 25 50
41 33 9 57 20 54 25 -3 5 5 19 17 31 25 27 123 175 132 201 4 12 3 16 -4 11
-6 -3 -3 8 6 26 28 55 45 111 51 170 4 51 3 56 -16 56 -11 0 -20 -4 -20 -8 0
-4 5 -8 10 -8 6 0 10 -4 10 -9 0 -5 -9 -7 -20 -4 -14 4 -19 1 -17 -8 2 -8 2
-11 -1 -6 -2 4 -25 5 -50 2 -26 -3 -69 -8 -97 -10 -27 -2 -77 -9 -110 -15 -79
-17 -267 -16 -278 1 -16 23 -60 80 -70 91 -7 7 -39 51 -71 98 -90 134 -247
352 -302 419 -37 46 -182 228 -204 256 -127 162 -439 487 -590 615 -87 73
-191 145 -245 169 -110 49 -126 50 -34 1 64 -34 178 -129 178 -150 1 -9 7 -22
14 -28 6 -7 12 -16 13 -20 0 -4 6 -19 12 -33 23 -56 1 -159 -50 -239 -26 -41
-28 -43 -23 -15 3 17 2 24 -1 17 -5 -10 -10 -10 -25 4 -15 13 -16 20 -8 31 7
7 9 16 5 20 -3 4 -13 -2 -21 -13 -8 -11 -15 -14 -15 -6 0 18 -20 15 -20 -4 0
-8 -4 -12 -10 -9 -5 3 -10 1 -10 -6 0 -7 -2 -10 -5 -7 -4 3 5 22 19 42 41 61
44 178 6 236 -7 11 -10 7 -10 -17 0 -22 -6 -36 -20 -43 -11 -6 -20 -17 -20
-25 0 -8 -6 -12 -13 -9 -8 3 -22 -7 -33 -21 -10 -14 -24 -25 -31 -25 -7 0 -13
-4 -13 -8 0 -5 -23 -21 -51 -36 -132 -72 -317 -22 -371 101 -29 65 -14 177 29
226 31 33 4 30 -30 -4 -23 -23 -40 -55 -52 -94 -22 -77 -37 -112 -29 -70 3 17
8 39 11 50 4 16 3 18 -8 8 -18 -18 -29 -16 -29 5 -1 15 -2 15 -15 -2 -9 -12
-15 -15 -15 -7 0 25 121 131 188 165 78 41 78 47 1 12 -81 -36 -162 -101 -214
-172 -48 -65 -65 -81 -45 -43 7 11 9 27 6 35 -3 8 -1 14 4 14 6 0 10 -6 10
-12 0 -7 5 -5 11 5 6 10 8 21 5 24 -3 4 -6 2 -6 -4 0 -6 -11 -9 -24 -8 -19 2
-23 -1 -19 -15 4 -17 0 -18 -46 -15 -28 2 -51 0 -51 -4 0 -7 -64 -24 -137 -35
-25 -4 -33 -1 -38 13 -7 24 -55 17 -55 -8 0 -27 20 -42 41 -30 15 7 17 6 13
-5 -3 -9 -22 -16 -42 -18 -33 -3 -37 -6 -34 -28 2 -13 11 -30 20 -38 10 -7 11
-10 4 -7 -15 8 -55 -29 -44 -39 3 -4 -1 -4 -11 0 -20 7 -23 24 -3 24 9 0 12 8
9 25 -8 38 -39 58 -53 34 -6 -8 -13 -2 -25 20 -20 39 -58 40 -63 2 -4 -25 15
-44 36 -36 14 5 16 -11 2 -20 -13 -8 -52 4 -45 15 3 4 -4 10 -15 13 -11 3 -20
12 -20 21 0 19 -5 20 -31 6 -11 -6 -19 -21 -19 -36 0 -21 -2 -23 -14 -12 -8 7
-12 15 -11 18 10 17 -48 6 -79 -15 -22 -15 -51 -25 -71 -25 -19 0 -35 -4 -35
-9 0 -6 -16 -3 -35 5 -43 18 -45 17 -45 -1 0 -14 -27 -20 -72 -17 -10 1 -18
-5 -18 -13 0 -8 -8 -15 -17 -15 -15 0 -16 2 -3 10 8 5 11 10 5 10 -5 -1 -19
-7 -29 -15 -20 -15 -20 -15 0 -16 31 -2 -98 -31 -136 -31 -50 0 -16 -12 95
-32 115 -22 201 -62 268 -125 120 -113 144 -236 74 -371 -10 -19 -15 -25 -12
-13 5 18 3 22 -9 17 -10 -4 -28 7 -48 29 -30 32 -33 40 -33 99 -1 51 -6 73
-28 111 -15 26 -30 47 -33 47 -3 0 -2 -5 1 -10 11 -17 -5 -87 -25 -110 -10
-12 -20 -16 -22 -10 -2 7 -15 3 -32 -11 -16 -13 -27 -19 -24 -13 44 93 51 132
31 189 -26 76 -82 123 -166 141 -107 22 -204 -2 -274 -69 -46 -43 -41 -21 7
31 52 56 34 54 -24 -3 -45 -44 -72 -61 -46 -30 7 9 14 30 15 48 2 18 5 41 8
52 3 11 6 23 6 28 2 12 29 8 34 -5 3 -7 6 0 6 15 1 24 4 27 22 22 31 -10 123
-7 172 5 71 19 589 177 832 255 127 40 284 90 350 110 151 47 248 96 281 144
17 26 24 30 24 17 0 -15 3 -16 15 -6 12 10 15 10 15 0 0 -7 8 -10 20 -7 12 3
17 1 14 -5 -3 -5 0 -9 7 -8 20 3 59 -11 55 -19 -3 -4 27 -8 65 -10 63 -2 86
-6 144 -26 11 -3 4 3 -15 14 -19 11 -42 20 -51 21 -9 0 -24 9 -34 20 -10 11
-22 20 -27 20 -10 0 -22 9 -88 68 -62 55 -91 116 -136 282 -20 74 -51 182 -70
240 -53 168 -54 153 13 183 32 14 69 28 83 32 14 3 50 24 80 46 30 21 79 53
107 70 62 36 73 49 41 49 l-22 0 22 16 c12 8 53 26 90 39 170 59 303 60 417 2
39 -20 106 -45 150 -57 158 -43 370 -164 480 -275 33 -33 102 -125 154 -203
74 -112 99 -142 116 -142 49 0 252 -108 400 -213 55 -39 161 -121 235 -183
357 -297 560 -567 760 -1013 61 -136 97 -239 145 -425 32 -120 37 -153 36
-252 0 -63 -3 -135 -7 -161 -3 -27 -4 -46 -1 -43 3 3 14 59 23 125 22 144 25
515 6 610 -6 33 -19 97 -27 142 -18 92 -80 294 -120 393 -165 400 -456 768
-845 1066 -154 119 -308 214 -503 311 -299 149 -575 252 -827 308 -63 14 -144
33 -180 42 -215 52 -418 68 -870 67 -398 0 -503 -7 -805 -58 -77 -13 -143 -22
-147 -19 -9 5 -44 114 -53 167 l-7 35 73 35 c41 19 95 40 122 47 31 7 47 17
48 28 0 9 3 27 5 41 l5 25 -16 -22 c-9 -13 -24 -23 -34 -23 -10 0 -24 -7 -31
-14 -6 -8 -36 -20 -66 -26 -29 -6 -56 -16 -60 -21 -3 -5 -9 -7 -13 -5 -4 3
-20 -5 -36 -18 -26 -21 -29 -29 -37 -127 -5 -57 -10 -109 -10 -115 -1 -6 27
-67 62 -137 l62 -127 38 0 c35 0 38 -2 63 -61 25 -59 26 -60 49 -45 22 14 118
30 333 55 50 6 128 15 174 21 95 11 214 13 250 3 22 -6 23 -9 16 -57 -10 -79
-6 -126 20 -222 58 -208 95 -371 95 -414 0 -79 30 -66 -575 -252 -71 -22 -186
-57 -255 -78 -69 -21 -145 -44 -170 -50 -25 -7 -54 -16 -65 -20 -11 -5 -29
-11 -40 -13 -11 -3 -65 -19 -120 -37 -115 -36 -222 -65 -282 -75 -32 -5 -50
-2 -84 16 -24 12 -50 29 -57 38 -18 23 -77 137 -142 276 -148 313 -139 299
-161 279 -10 -9 -19 -23 -19 -31 0 -8 -4 -12 -8 -9 -29 18 4 -66 108 -272 129
-259 150 -311 150 -376 0 -64 -16 -101 -93 -215 -76 -114 -107 -181 -131 -284
-54 -233 -80 -692 -73 -1292 5 -425 19 -827 32 -935 5 -39 4 -42 -6 -20 -6 14
-15 61 -20 104 -5 44 -13 84 -17 90 -5 6 -15 31 -22 55 -8 24 -21 46 -30 48
-9 2 -20 14 -25 26 -6 12 -25 26 -42 31 -18 5 -33 14 -33 21 0 11 -66 45 -88
45 -7 0 -12 11 -12 25 0 17 -6 25 -17 25 -10 0 -25 5 -33 10 -12 8 -12 12 -2
18 10 7 2 21 -32 56 -25 26 -46 51 -46 56 0 6 -6 10 -14 10 -8 0 -17 11 -20
25 -4 14 -11 25 -16 25 -6 0 -10 7 -10 15 0 8 -6 15 -14 15 -9 0 -17 15 -21
40 -5 30 -12 40 -25 40 -13 0 -20 10 -25 40 -4 22 -12 40 -19 40 -7 0 -21 18
-32 40 -10 22 -22 40 -26 40 -3 0 -9 18 -13 40 -4 25 -12 40 -21 40 -8 0 -14
9 -14 21 0 11 -11 40 -25 65 -14 25 -25 51 -25 58 0 8 -7 16 -15 20 -8 3 -15
11 -15 19 0 7 -9 30 -20 52 -11 22 -20 50 -20 62 0 13 -4 23 -10 23 -5 0 -13
12 -16 27 -4 15 -13 34 -20 41 -19 18 -36 86 -24 90 17 6 11 19 -10 25 -14 3
-20 14 -20 31 0 14 -4 26 -10 26 -5 0 -10 15 -10 34 0 18 -7 49 -15 69 -8 19
-11 37 -8 40 3 4 -2 9 -11 13 -10 4 -16 18 -16 38 0 18 -4 36 -8 41 -34 39
-41 228 -9 259 9 10 17 21 17 26 0 13 53 22 140 22 44 0 80 4 80 9 0 5 -15 9
-34 9 -19 0 -36 3 -38 8 -1 4 -34 20 -71 36 -211 89 -326 224 -347 406 -14
124 1 184 86 351 82 162 154 270 201 301 51 33 151 84 228 115 55 22 53 23
-15 7 l-25 -5 24 14 c17 10 20 16 10 19 -7 2 25 15 71 28 106 29 211 32 258 7
l33 -18 24 30 c30 35 288 163 520 258 175 72 557 203 591 203 27 0 71 -65 80
-118 l6 -40 72 20 c77 22 94 32 75 43 -8 5 -10 4 -5 -3 5 -8 0 -12 -13 -12
-11 0 -23 5 -26 10 -3 6 0 10 7 10 9 0 9 3 2 8 -6 4 -19 32 -29 62 -9 30 -22
63 -27 73 -5 10 -6 22 -3 27 4 6 1 10 -4 10 -6 0 -11 7 -11 15 0 9 -7 18 -15
21 -10 4 -12 10 -6 18 15 18 -24 124 -100 273 -58 113 -145 259 -169 283 -3 3
-14 23 -25 44 -11 22 -30 58 -42 80 -22 42 -82 193 -101 256 -33 106 -43 258
-22 329 14 49 -8 38 -33 -16z m1611 -1628 c0 -16 -2 -15 -8 5 -11 34 -11 60 0
35 5 -11 8 -29 8 -40z m-814 -836 c-3 -6 0 -15 7 -20 10 -6 6 -9 -13 -9 -32 0
-37 14 -10 29 22 13 25 13 16 0z m-130 -15 c3 -8 2 -12 -4 -9 -6 3 -10 1 -10
-6 0 -7 -3 -10 -6 -6 -7 6 2 37 10 37 2 0 7 -7 10 -16z m295 -18 c-3 -3 -11 5
-18 17 -13 21 -12 21 5 5 10 -10 16 -20 13 -22z m-212 -18 c-3 -8 -6 -5 -6 6
-1 11 2 17 5 13 3 -3 4 -12 1 -19z m133 0 c0 -5 5 -6 10 -3 6 3 10 1 10 -4 0
-6 -11 -11 -24 -11 -13 0 -31 -2 -38 -5 -9 -4 -14 2 -15 17 -2 18 0 20 7 8 9
-13 14 -8 12 11 -1 4 8 5 18 2 11 -3 20 -10 20 -15z m-922 -13 c-3 -3 -9 2
-12 12 -6 14 -5 15 5 6 7 -7 10 -15 7 -18z m1046 -170 c11 -8 16 -15 11 -15
-4 0 0 -9 10 -20 11 -12 20 -33 22 -48 1 -15 6 -43 11 -63 13 -52 -1 -71 -22
-31 -14 27 -76 181 -76 189 0 8 28 0 44 -12z m-1149 -54 c-14 -29 -35 -49 -35
-36 0 9 40 65 46 65 2 0 -2 -13 -11 -29z m78 -38 c3 -10 8 -36 12 -58 15 -88
80 -165 157 -186 50 -13 131 0 190 31 54 28 56 25 8 -15 -151 -126 -414 -28
-408 153 1 28 5 52 10 52 4 0 8 9 8 20 0 25 17 26 23 3z m1147 -7 c0 -3 -4 -8
-10 -11 -5 -3 -10 -1 -10 4 0 6 5 11 10 11 6 0 10 -2 10 -4z m1360 -163 c38
-23 106 -79 165 -138 105 -105 189 -211 557 -700 219 -291 312 -403 410 -494
l47 -43 63 21 c34 12 68 21 75 21 18 0 99 -168 87 -179 -9 -8 -256 -82 -419
-125 -44 -11 -81 -21 -83 -22 -5 -3 180 -390 192 -402 6 -5 117 25 344 94 116
35 214 64 217 64 6 0 85 -167 85 -179 0 -4 -22 -15 -48 -24 -71 -22 -714 -205
-736 -209 -15 -2 -25 10 -45 58 -50 119 -336 713 -339 705 -4 -11 16 -54 190
-421 80 -168 148 -316 151 -330 6 -23 2 -26 -47 -42 -29 -10 -55 -18 -58 -18
-9 0 -47 94 -53 131 -3 20 -21 62 -41 94 -19 33 -46 87 -60 122 -33 81 -113
215 -125 207 -5 -3 4 -22 20 -43 175 -221 112 -482 -144 -596 -39 -17 -254
-86 -447 -142 -11 -3 -21 5 -31 24 -14 25 -16 26 -23 10 -4 -11 4 -51 21 -100
16 -45 32 -100 36 -122 4 -22 45 -133 92 -247 89 -217 105 -264 87 -253 -10 6
-110 -25 -160 -50 -14 -7 -42 -17 -63 -23 -36 -10 -39 -9 -49 16 -6 15 -14 36
-19 47 -40 98 -139 355 -144 375 -5 22 -1 27 26 37 l32 12 -5 78 c-3 43 -12
95 -21 115 l-15 37 -114 -34 c-62 -19 -118 -35 -124 -35 -6 0 -17 19 -24 43
-8 23 -20 52 -28 64 -7 12 -10 28 -6 34 4 7 3 9 -3 6 -6 -4 -13 2 -16 12 -4
17 -17 15 -178 -33 -96 -29 -188 -57 -206 -62 l-31 -9 29 -75 c16 -41 34 -85
38 -96 l10 -22 88 23 c48 13 122 33 163 44 109 31 128 29 146 -15 8 -20 20
-61 26 -92 6 -32 12 -58 13 -60 1 -1 32 7 70 19 37 11 71 17 75 12 8 -10 70
-160 70 -171 0 -5 -30 -19 -67 -31 -38 -13 -83 -29 -100 -37 -18 -8 -48 -20
-65 -28 -18 -7 -86 -37 -151 -65 -64 -28 -121 -51 -126 -51 -15 0 -87 196
-117 320 -15 63 -30 118 -33 122 -4 4 -47 -6 -96 -22 -158 -50 -131 -74 -247
215 -55 138 -102 252 -104 254 -17 17 -5 -23 42 -139 56 -138 154 -396 154
-405 0 -3 -8 -5 -17 -5 -10 0 -47 -7 -83 -16 l-65 -17 -62 28 c-34 15 -60 32
-57 37 3 4 0 8 -6 8 -6 0 -9 4 -6 8 6 9 -72 57 -80 49 -3 -2 9 -10 25 -17 16
-6 32 -18 35 -26 3 -8 -13 -3 -44 14 -32 18 -44 30 -37 35 7 5 4 6 -8 3 -13
-4 -41 6 -75 27 -30 18 -67 38 -82 46 -15 8 -25 18 -22 22 3 5 -2 6 -10 3 -9
-3 -16 -1 -16 5 0 6 -6 11 -13 11 -7 0 -29 11 -47 25 -19 14 -36 22 -38 17 -1
-5 13 -54 33 -108 81 -222 96 -266 93 -268 -3 -3 -93 -29 -172 -50 -26 -8 -56
-11 -66 -9 -13 3 -35 53 -80 181 -35 98 -78 218 -97 267 -18 50 -43 115 -54
145 -33 88 -40 100 -33 55 10 -63 11 -93 3 -106 -4 -7 2 -31 14 -53 27 -51 28
-152 3 -210 -10 -22 -42 -65 -71 -96 l-54 -56 141 -85 c78 -46 161 -95 185
-107 44 -23 80 -78 70 -105 -2 -7 -10 7 -17 29 -14 47 -45 70 -82 61 -13 -3
-86 -22 -163 -43 l-140 -37 -100 57 c-150 86 -274 162 -295 181 -16 15 -50 93
-50 116 0 4 51 24 113 45 161 53 212 108 175 189 -13 28 -31 35 -21 8 5 -15 3
-16 -8 -5 -21 20 -97 14 -194 -14 -49 -14 -99 -30 -110 -35 -11 -4 -29 -9 -40
-11 -11 -2 -19 -10 -17 -18 1 -8 44 -143 96 -300 l94 -285 -32 -6 c-17 -4 -74
-18 -126 -33 -52 -14 -97 -22 -100 -18 -13 15 -60 134 -60 151 0 10 -3 21 -7
25 -10 10 -34 77 -39 110 -2 17 -7 32 -12 35 -4 3 -8 15 -10 26 -4 26 -44 157
-95 312 -23 67 -39 124 -36 127 5 4 507 148 582 167 26 6 46 13 44 16 -3 2 2
34 11 71 12 56 14 159 13 628 -1 364 2 592 9 650 22 177 74 298 153 355 39 28
43 29 118 23 175 -15 363 41 499 147 40 31 153 74 174 66 8 -3 17 -21 21 -39
9 -38 106 -290 229 -593 82 -200 100 -269 74 -277 -8 -3 -4 -24 13 -67 20 -51
30 -66 59 -79 26 -13 36 -26 43 -54 5 -22 5 -44 -1 -53 -6 -12 -2 -35 15 -77
29 -71 33 -67 -82 -102 -157 -49 -218 -59 -365 -64 -128 -3 -152 -2 -207 17
-34 12 -65 21 -68 21 -13 0 -2 -80 18 -139 29 -86 57 -106 140 -105 46 1 81 9
137 33 41 18 98 39 125 48 28 8 98 30 156 49 111 36 183 43 213 21 15 -11 16
-17 7 -35 l-11 -21 57 20 c112 38 279 41 382 5 l43 -14 32 35 c17 20 60 55 96
78 36 24 99 68 140 99 41 31 139 88 216 127 78 38 152 81 164 94 17 18 25 41
28 79 5 58 -14 193 -29 202 -5 3 -9 1 -9 -5 0 -10 -100 -94 -182 -153 -334
-237 -489 -338 -517 -338 -5 0 -12 11 -15 25 -3 13 -11 37 -17 52 -11 28 -11
28 -20 6 -4 -13 -16 -23 -25 -23 -9 0 -13 -6 -10 -12 24 -61 29 -90 15 -99
-23 -14 -295 -11 -307 4 -5 6 -21 44 -35 82 -13 39 -33 93 -45 120 -140 348
-262 665 -262 682 0 2 4 2 9 -1 5 -4 11 -2 13 3 1 5 25 12 52 15 27 3 54 10
59 15 6 6 21 11 34 11 13 0 23 4 23 9 0 5 11 12 24 15 24 6 43 45 23 47 -9 0
-9 2 0 5 8 4 8 16 -4 49 -23 68 -16 89 31 93 50 4 78 -21 123 -113 27 -55 33
-62 28 -35 -4 23 -3 30 3 21 7 -10 14 -11 30 -2 12 6 25 11 29 10 28 -5 64 3
78 18 10 9 31 16 50 15 22 -1 41 7 59 23 l26 24 -53 44 c-108 92 -225 130
-468 152 -195 18 -301 33 -312 44 -16 16 21 30 253 99 129 39 309 93 400 121
137 43 185 53 285 61 208 16 324 67 482 211 54 49 80 50 163 2z m-1907 -103
c3 -11 1 -18 -4 -14 -5 3 -9 12 -9 20 0 20 7 17 13 -6z m3421 -886 c11 -30
-37 -84 -76 -84 -32 0 -58 9 -58 21 0 10 39 49 66 66 27 17 61 16 68 -3z
m-181 -769 c20 -41 37 -81 37 -89 0 -10 -20 -21 -57 -31 -32 -9 -78 -23 -103
-30 -84 -26 -103 -27 -122 -2 l-17 22 5 -25 5 -25 -11 23 c-5 13 -7 29 -3 34
3 7 1 8 -5 4 -14 -8 -26 20 -35 80 l-7 42 83 22 c45 11 100 27 122 35 66 22
69 20 108 -60z m840 -624 c9 -1 17 -5 17 -10 0 -22 -324 -364 -475 -502 -69
-62 -235 -202 -284 -239 -18 -14 -50 -38 -71 -55 -104 -82 -319 -224 -455
-300 -462 -258 -1037 -442 -1664 -530 -193 -27 -573 -40 -796 -26 -379 23
-804 88 -1038 159 -55 16 -58 19 -51 42 10 36 9 154 -3 227 -17 108 14 119
131 48 41 -25 89 -50 106 -56 26 -10 30 -15 25 -33 -3 -11 -7 -26 -7 -33 -1
-6 -6 -9 -13 -7 -6 3 -20 -4 -30 -16 -16 -18 -16 -20 -2 -20 10 0 17 5 17 10
0 6 9 10 20 10 11 0 20 -4 20 -10 0 -5 14 -10 30 -10 17 0 30 4 30 8 0 5 15 9
33 10 39 1 87 18 87 30 0 4 28 14 62 22 50 11 78 11 143 2 121 -18 113 -22
103 50 -4 33 -6 64 -2 67 3 3 54 11 112 16 l107 10 -3 59 c-1 33 -12 94 -23
135 -29 109 -40 162 -33 172 11 19 49 7 128 -40 169 -102 474 -241 527 -241
13 0 48 9 78 21 30 11 82 23 117 26 62 6 63 5 75 -23 25 -63 35 -77 68 -99 18
-13 46 -45 61 -72 23 -40 35 -50 72 -61 41 -12 57 -11 184 18 183 41 326 80
512 142 143 47 154 52 166 82 7 18 42 55 77 84 245 198 242 196 237 274 -5 66
-11 76 -35 57 -14 -12 -16 -12 -8 0 12 21 -10 6 -64 -45 -83 -76 -190 -164
-200 -164 -6 0 -11 -4 -11 -10 0 -5 -5 -10 -10 -10 -6 0 -21 -9 -33 -20 l-22
-21 -16 48 c-9 26 -26 66 -37 88 -45 86 -47 82 94 155 94 49 128 71 135 90 6
16 40 43 97 77 88 53 177 131 243 213 31 39 38 43 52 31 9 -7 28 -50 42 -96
29 -97 46 -119 84 -110 14 3 100 39 191 80 165 73 373 157 420 170 14 3 42 13
63 22 32 14 42 15 59 4 18 -11 24 -9 55 21 32 29 34 30 23 8 -10 -21 -10 -23
1 -12 8 7 42 12 92 12 65 0 90 5 145 29 37 16 79 33 95 36 15 4 27 10 27 14 0
4 24 4 53 0 28 -4 60 -8 70 -8z m-1943 -354 c50 -85 65 -157 33 -157 -10 0
-54 -16 -97 -35 -44 -19 -81 -34 -82 -32 -8 9 -64 140 -64 152 0 7 -4 17 -10
20 -24 15 -6 33 45 44 30 7 53 17 50 22 -4 5 4 9 17 9 13 0 30 5 38 10 28 18
45 10 70 -33z m-473 -424 c3 -10 22 -62 43 -115 l37 -97 -26 -5 c-285 -59
-520 -50 -521 21 0 16 73 53 260 132 80 34 154 66 165 71 29 13 35 12 42 -7z"/>
<path d="M5387 5039 c4 -13 8 -18 11 -10 2 7 -1 18 -6 23 -8 8 -9 4 -5 -13z"/>
<path d="M5895 4903 c-44 -9 -135 -45 -135 -54 0 -4 30 4 68 17 82 29 147 32
161 7 9 -17 10 -17 17 0 3 10 4 21 0 24 -7 8 -82 11 -111 6z"/>
<path d="M4721 4429 c-26 -21 -21 -33 19 -44 17 -4 21 -3 11 3 -9 7 -11 19 -7
36 8 31 8 31 -23 5z"/>
<path d="M5910 4345 c0 -5 5 -17 10 -25 5 -8 10 -10 10 -5 0 6 -5 17 -10 25
-5 8 -10 11 -10 5z"/>
<path d="M5941 4280 c14 -31 19 -36 19 -24 0 6 -7 19 -16 30 -14 18 -14 18 -3
-6z"/>
<path d="M6310 4279 c-47 -12 -86 -22 -87 -23 -3 -3 107 -242 120 -264 5 -7
13 -9 19 -6 12 8 183 5 204 -3 7 -3 14 -12 14 -19 0 -24 37 2 66 46 27 40 41
134 23 146 -5 3 -6 -3 -3 -13 5 -15 4 -16 -5 -3 -6 8 -8 23 -5 34 4 13 3 16
-6 11 -9 -5 -11 -4 -6 4 4 6 2 18 -4 26 -15 18 -34 20 -24 3 5 -8 1 -8 -12 2
-29 22 -30 24 -11 17 13 -5 17 -3 14 5 -2 7 -12 12 -22 10 -12 -2 -16 1 -12
11 6 16 -31 38 -61 36 -14 0 -14 -2 3 -10 17 -8 15 -8 -8 -4 -74 15 -118 13
-197 -6z"/>
<path d="M5961 4229 c-1 -8 6 -24 15 -35 15 -19 15 -19 6 1 -5 11 -12 27 -15
35 -5 13 -6 13 -6 -1z"/>
<path d="M6045 4030 c-3 -5 -1 -10 4 -10 6 0 11 5 11 10 0 6 -2 10 -4 10 -3 0
-8 -4 -11 -10z"/>
<path d="M5318 3998 c-50 -13 -105 -69 -119 -120 -10 -39 -7 -103 5 -116 3 -2
97 22 209 54 172 49 202 60 191 72 -14 13 -18 26 -15 49 1 6 -3 14 -9 18 -6 4
-7 -1 -3 -12 4 -13 -2 -10 -22 10 -49 48 -152 68 -237 45z"/>
<path d="M6057 3992 c3 -12 9 -25 14 -28 14 -8 11 10 -6 32 -13 18 -14 18 -8
-4z"/>
<path d="M6100 3891 c0 -5 5 -13 10 -16 6 -3 10 -2 10 4 0 5 -4 13 -10 16 -5
3 -10 2 -10 -4z"/>
<path d="M6120 3851 c0 -6 4 -13 10 -16 6 -3 7 1 4 9 -7 18 -14 21 -14 7z"/>
<path d="M4696 3622 c-3 -6 -1 -14 5 -17 14 -9 20 -2 10 14 -6 8 -11 9 -15 3z"/>
<path d="M4622 3394 c10 -10 20 -15 24 -12 3 4 -5 12 -18 18 -22 12 -22 12 -6
-6z"/>
<path d="M3659 3070 c13 -11 27 -20 32 -20 17 0 9 9 -23 24 l-33 16 24 -20z"/>
<path d="M3710 3041 c0 -10 59 -41 64 -33 2 4 -12 14 -30 23 -19 9 -34 14 -34
10z"/>
<path d="M3796 2997 c3 -10 9 -15 12 -12 3 3 0 11 -7 18 -10 9 -11 8 -5 -6z"/>
<path d="M3806 2431 c-13 -14 -14 -21 -5 -27 7 -4 10 -3 6 3 -8 13 17 36 28
25 5 -4 5 -1 1 6 -9 16 -10 15 -30 -7z"/>
<path d="M4214 8376 c-5 -12 24 -72 31 -64 1 2 0 20 -3 41 -4 37 -18 49 -28
23z"/>
<path d="M5622 7827 c23 -42 44 -74 46 -73 7 8 -47 112 -67 130 -15 14 -9 -2
21 -57z"/>
<path d="M5967 7887 c-19 -48 2 -126 43 -165 12 -11 45 -26 72 -32 42 -11 58
-10 106 5 65 21 142 88 142 125 0 12 -3 20 -7 18 -65 -33 -129 -58 -175 -67
-49 -11 -62 -10 -92 4 -47 22 -68 48 -75 93 -5 28 -8 33 -14 19z"/>
<path d="M5481 7844 c-1 -41 36 -148 59 -169 15 -13 25 -15 57 -6 41 11 83 37
83 51 0 5 -16 2 -35 -6 -19 -7 -44 -14 -56 -14 -23 0 -58 36 -59 60 0 8 -11
38 -24 65 -23 48 -24 49 -25 19z"/>
<path d="M6487 7673 c-11 -10 -8 -62 5 -104 9 -31 20 -43 53 -59 63 -30 135
-36 189 -16 50 19 106 76 106 106 0 26 -5 25 -46 -6 -30 -23 -46 -27 -118 -30
l-84 -3 -36 35 c-20 19 -36 31 -37 27 0 -4 -5 3 -11 17 -6 14 -10 28 -10 33 2
9 -3 9 -11 0z"/>
<path d="M5727 7484 c-16 -17 -5 -84 23 -142 26 -50 37 -63 67 -73 96 -31 283
54 283 129 0 19 -4 23 -17 17 -65 -25 -139 -47 -199 -60 -67 -14 -69 -14 -91
8 -13 12 -31 46 -41 75 -9 29 -21 50 -25 46z"/>
<path d="M6260 7270 c-9 -102 6 -140 70 -185 36 -25 46 -27 113 -23 66 3 81 8
126 38 56 38 91 94 72 113 -8 8 -14 8 -19 2 -8 -11 -62 -48 -62 -42 0 2 -30
-2 -67 -9 -104 -19 -152 -12 -185 28 -15 18 -31 49 -36 68 -9 31 -10 32 -12
10z"/>
<path d="M3265 7210 c-18 -20 -18 -23 -2 -73 9 -28 26 -67 37 -84 17 -29 25
-33 64 -33 29 0 52 7 67 20 27 22 21 23 -33 11 -21 -5 -36 -5 -33 -1 3 5 -4
15 -14 22 -11 8 -31 47 -44 87 -23 71 -23 72 -42 51z"/>
<path d="M3390 7191 c0 -6 4 -13 10 -16 6 -3 7 1 4 9 -7 18 -14 21 -14 7z"/>
<path d="M5630 7046 c-68 -24 -119 -50 -115 -57 3 -4 -2 -10 -11 -13 -8 -3
-13 -10 -10 -14 3 -4 1 -24 -3 -44 -11 -47 10 -138 41 -183 30 -44 85 -74 147
-82 50 -6 70 -1 157 38 43 19 94 70 94 95 0 8 4 14 8 14 15 0 3 88 -17 129
-53 104 -183 156 -291 117z m93 -101 c15 -4 27 -10 27 -14 0 -3 14 -12 31 -20
23 -10 28 -16 18 -22 -11 -7 -11 -9 1 -9 9 0 23 -13 33 -29 13 -23 14 -31 4
-39 -17 -15 -157 -11 -157 5 0 6 -18 14 -41 18 -22 4 -43 13 -46 21 -4 11 -10
11 -39 -1 -39 -16 -59 -1 -29 22 11 7 15 13 11 13 -5 0 -3 7 4 15 7 8 23 15
37 15 13 0 22 4 19 9 -14 22 66 32 127 16z"/>
<path d="M5550 6890 c0 -5 7 -7 15 -4 8 4 15 8 15 10 0 2 -7 4 -15 4 -8 0 -15
-4 -15 -10z"/>
<path d="M2878 6948 c14 -14 16 -32 2 -23 -6 3 -7 -1 -4 -9 3 -9 1 -16 -5 -16
-6 0 -11 5 -11 10 0 6 -8 10 -17 11 -15 0 -15 2 2 9 34 15 -5 11 -68 -7 -32
-9 -61 -23 -64 -30 -5 -12 -7 -12 -14 -1 -9 13 -13 -45 -9 -127 2 -48 25 -100
52 -119 14 -10 16 -15 6 -19 -7 -3 4 -6 25 -6 21 -1 47 -6 58 -12 11 -5 38
-11 61 -12 37 -1 45 3 84 48 48 54 62 99 46 148 l-10 32 -1 -32 c-1 -17 -5
-34 -9 -37 -10 -6 -42 56 -42 79 0 8 -7 15 -15 15 -8 0 -15 6 -15 13 0 9 -3 8
-9 -2 -6 -10 -10 -10 -16 -1 -4 6 -2 17 4 23 6 6 11 18 11 26 0 11 -4 10 -16
-5 -15 -18 -15 -18 -10 4 6 29 -2 52 -17 52 -7 0 -7 -4 1 -12z m-101 -44 c-3
-3 -12 -4 -19 -1 -8 3 -5 6 6 6 11 1 17 -2 13 -5z"/>
<path d="M4800 6790 c-30 -30 -25 -39 20 -36 48 4 54 8 45 35 -8 27 -39 27
-65 1z"/>
<path d="M3286 6745 c-4 -10 -19 -15 -49 -15 -62 0 -122 -33 -160 -86 -57 -80
-55 -125 5 -162 61 -38 119 -48 195 -33 37 8 89 24 115 37 64 32 79 84 23 84
-24 0 -35 17 -35 53 0 18 -2 19 -11 7 -8 -12 -9 -10 -4 7 7 26 -11 99 -27 109
-8 5 -9 2 -5 -9 9 -23 -2 -21 -23 3 -15 17 -19 18 -24 5z"/>
<path d="M4476 6708 c3 -5 10 -6 15 -3 13 9 11 12 -6 12 -8 0 -12 -4 -9 -9z"/>
<path d="M4861 6704 c0 -11 3 -14 6 -6 3 7 2 16 -1 19 -3 4 -6 -2 -5 -13z"/>
<path d="M4390 6692 c0 -4 16 -6 35 -4 19 2 35 6 35 8 0 2 -16 4 -35 4 -19 0
-35 -4 -35 -8z"/>
<path d="M3457 6683 c-4 -3 -7 -10 -7 -14 0 -9 39 1 46 12 6 10 -29 12 -39 2z"/>
<path d="M3406 6655 c14 -58 24 -83 18 -40 -3 22 -10 47 -15 55 -6 10 -7 5 -3
-15z"/>
<path d="M3840 6595 c0 -9 6 -12 15 -9 8 4 15 7 15 9 0 2 -7 5 -15 9 -9 3 -15
0 -15 -9z"/>
<path d="M2625 6570 c-3 -5 -19 -10 -35 -10 -15 0 -49 -9 -75 -20 -26 -11 -51
-17 -57 -14 -7 5 -8 -14 -4 -60 7 -60 6 -66 -11 -66 -19 0 -43 -18 -43 -31 0
-4 12 -9 27 -11 22 -2 31 -11 43 -44 24 -65 36 -74 96 -74 30 0 54 4 54 8 0 5
25 14 55 21 30 7 55 17 55 22 0 5 6 9 14 9 25 0 106 100 121 150 7 20 1 17
-33 -19 -49 -52 -71 -48 -42 10 24 46 19 60 -35 108 -28 25 -45 31 -80 31 -24
0 -47 -4 -50 -10z"/>
<path d="M2935 6402 c-2 -2 1 -16 6 -30 l10 -26 -22 19 -22 20 12 -22 c8 -16
8 -23 1 -23 -6 0 -9 -4 -6 -8 3 -5 -1 -9 -9 -9 -10 0 -11 5 -4 19 5 10 7 18 5
18 -3 0 -13 -14 -22 -32 -13 -26 -15 -48 -10 -112 18 -213 51 -225 304 -110
46 21 52 27 52 54 0 23 -5 31 -26 36 -14 4 -30 17 -35 31 -5 13 -13 21 -19 18
-13 -8 -13 1 0 25 7 12 7 26 0 42 -10 22 -10 21 -5 -4 4 -21 1 -28 -9 -28 -10
0 -13 6 -10 15 5 11 2 13 -10 9 -12 -5 -16 0 -16 20 0 17 -5 26 -16 26 -9 0
-14 6 -11 13 2 6 10 11 16 9 7 -1 10 2 6 8 -3 5 -13 10 -21 10 -8 0 -14 4 -14
9 0 8 -117 11 -125 3z m118 -22 c3 -11 1 -20 -4 -20 -5 0 -9 9 -9 20 0 11 2
20 4 20 2 0 6 -9 9 -20z"/>
<path d="M2882 5965 c55 -11 74 -11 115 0 47 13 46 13 -67 13 l-115 0 67 -13z"/>
<path d="M1462 5100 c0 -14 2 -19 5 -12 2 6 2 18 0 25 -3 6 -5 1 -5 -13z"/>
<path d="M8350 5031 c0 -6 4 -13 10 -16 6 -3 7 1 4 9 -7 18 -14 21 -14 7z"/>
<path d="M8342 4973 c0 -16 10 -59 21 -98 11 -38 21 -81 22 -95 1 -20 14 -32
70 -62 37 -21 70 -38 72 -38 3 0 -6 13 -19 28 -12 16 -52 88 -88 160 -36 72
-68 132 -72 132 -4 0 -7 -12 -6 -27z"/>
<path d="M1092 4915 c-6 -114 52 -487 103 -666 131 -455 307 -830 547 -1166
104 -146 143 -191 306 -356 l136 -137 110 31 c549 153 590 168 602 214 8 33
-2 59 -21 51 -8 -3 -17 -1 -20 4 -10 16 -64 11 -165 -15 -219 -57 -268 -67
-325 -67 -61 -1 -136 22 -165 49 -11 11 -8 10 15 -1 17 -9 37 -16 45 -16 8 0
-3 9 -25 21 -85 45 -135 121 -135 205 0 48 41 133 84 173 20 19 36 40 36 47 0
6 -17 29 -38 50 -51 53 -188 217 -238 284 -42 57 -165 258 -198 322 -10 21
-23 35 -27 32 -5 -3 -6 1 -4 8 3 8 -10 45 -29 84 -18 38 -42 93 -52 121 -10
28 -21 50 -25 47 -4 -2 -6 2 -5 9 2 25 -37 126 -47 120 -6 -3 -7 -1 -3 5 7 11
5 19 -38 186 -34 133 -46 146 -20 21 2 -11 1 -14 -2 -7 -4 9 -11 7 -26 -10
-13 -15 -19 -18 -18 -8 4 27 0 40 -11 40 -7 0 -18 8 -25 18 -13 16 -15 16 -28
0 -18 -24 -106 -26 -106 -3 0 19 -7 19 -26 1 -8 -8 -14 -26 -14 -40 0 -16 -7
-27 -20 -31 -11 -3 -20 -12 -20 -18 0 -7 -4 -6 -10 3 -6 8 -8 40 -5 70 3 33 1
61 -6 70 -9 12 -10 11 -6 -8 3 -13 0 -37 -7 -54 -11 -25 -14 -27 -20 -12 -4 9
-2 22 4 28 12 12 12 64 -1 91 -6 15 -8 9 -4 -20 3 -22 1 -46 -3 -53 -6 -9 -15
34 -24 115 -11 93 -12 130 -4 135 8 6 8 8 -1 8 -6 0 -14 12 -16 28 l-4 27 -1
-30z m75 -377 c-3 -8 -6 -5 -6 6 -1 11 2 17 5 13 3 -3 4 -12 1 -19z m221 10
c9 -9 15 -9 24 0 15 15 28 16 28 2 0 -5 -7 -10 -15 -10 -8 0 -15 -7 -15 -15 0
-8 -4 -15 -10 -15 -5 0 -10 7 -10 15 0 13 -9 16 -90 28 -14 3 -2 5 26 6 27 0
55 -4 62 -11z m-28 -18 c0 -5 -19 -9 -42 -9 -40 1 -41 2 -13 9 44 11 55 11 55
0z m140 -4 c0 -3 -4 -8 -10 -11 -5 -3 -10 -1 -10 4 0 6 5 11 10 11 6 0 10 -2
10 -4z m-187 -33 c-7 -2 -19 -2 -25 0 -7 3 -2 5 12 5 14 0 19 -2 13 -5z m-132
-39 c-5 -16 -10 -21 -10 -12 -1 18 10 51 15 45 2 -1 -1 -16 -5 -33z m356 -36
c-3 -8 -6 -5 -6 6 -1 11 2 17 5 13 3 -3 4 -12 1 -19z m31 -119 c-3 -8 -7 -3
-11 10 -4 17 -3 21 5 13 5 -5 8 -16 6 -23z m-31 -16 c-3 -10 -5 -4 -5 12 0 17
2 24 5 18 2 -7 2 -21 0 -30z m603 -983 c0 -5 -2 -10 -4 -10 -3 0 -8 5 -11 10
-3 6 -1 10 4 10 6 0 11 -4 11 -10z m-105 -100 c-3 -5 -12 -10 -18 -10 -7 0 -6
4 3 10 19 12 23 12 15 0z"/>
<path d="M1461 4779 c-3 -56 -14 -87 -32 -92 -23 -6 -25 -27 -3 -27 11 0 14
-6 9 -20 -4 -14 -2 -20 7 -18 8 2 14 -8 16 -25 2 -15 8 -25 13 -22 12 8 12 45
-1 45 -5 0 -10 17 -10 38 0 27 3 33 10 22 8 -13 10 -13 10 2 0 9 -5 20 -11 24
-6 3 -7 9 -3 13 5 3 6 24 3 46 -4 27 -7 32 -8 14z"/>
<path d="M1172 4700 c0 -14 2 -19 5 -12 2 6 2 18 0 25 -3 6 -5 1 -5 -13z"/>
<path d="M1192 4690 c0 -14 2 -19 5 -12 2 6 2 18 0 25 -3 6 -5 1 -5 -13z"/>
<path d="M1257 4684 c-8 -8 1 -24 14 -24 5 0 9 7 9 15 0 15 -12 20 -23 9z"/>
<path d="M1360 4650 c0 -5 -19 -11 -42 -12 l-43 -1 45 -6 c25 -3 47 -3 48 2 2
4 10 7 18 7 8 0 14 5 14 10 0 6 -9 10 -20 10 -11 0 -20 -4 -20 -10z"/>
<path d="M1208 4643 c7 -3 16 -2 19 1 4 3 -2 6 -13 5 -11 0 -14 -3 -6 -6z"/>
<path d="M1193 4557 c0 -18 2 -24 4 -14 3 9 9 17 14 17 14 0 11 17 -5 23 -9 4
-13 -4 -13 -26z"/>
</g>
</svg>
